<svg xmlns="http://www.w3.org/2000/svg" xmlns:xlink="http://www.w3.org/1999/xlink" viewBox="0,0,256,256" width="400px" height="400px" fill-rule="nonzero"><g transform="translate(-26.88,-26.88) scale(1.21,1.21)"><g fill="none" fill-rule="nonzero" stroke="none" stroke-width="1" stroke-linecap="butt" stroke-linejoin="miter" stroke-miterlimit="10" stroke-dasharray="" stroke-dashoffset="0" font-family="none" font-weight="none" font-size="none" text-anchor="none" style="mix-blend-mode: normal"><g transform="scale(2.56,2.56)"><circle cx="20.5" cy="61.5" r="7.5" fill="#fed5b3"></circle><path d="M20.5,70c-4.687,0 -8.5,-3.813 -8.5,-8.5c0,-4.687 3.813,-8.5 8.5,-8.5c4.687,0 8.5,3.813 8.5,8.5c0,4.687 -3.813,8.5 -8.5,8.5zM20.5,55c-3.584,0 -6.5,2.916 -6.5,6.5c0,3.584 2.916,6.5 6.5,6.5c3.584,0 6.5,-2.916 6.5,-6.5c0,-3.584 -2.916,-6.5 -6.5,-6.5z" fill="#000000"></path><circle cx="79.5" cy="62.5" r="7.5" fill="#fed5b3"></circle><path d="M79.5,71c-4.687,0 -8.5,-3.813 -8.5,-8.5c0,-4.687 3.813,-8.5 8.5,-8.5c4.687,0 8.5,3.813 8.5,8.5c0,4.687 -3.813,8.5 -8.5,8.5zM79.5,56c-3.584,0 -6.5,2.916 -6.5,6.5c0,3.584 2.916,6.5 6.5,6.5c3.584,0 6.5,-2.916 6.5,-6.5c0,-3.584 -2.916,-6.5 -6.5,-6.5z" fill="#000000"></path><path d="M84,49c-4.629,15.044 -15.222,19 -34,19c-18.778,0 -31.585,-5.635 -35,-21c-2,-9 4.741,-17.483 7,-22c5,-10 15.403,-13.031 28,-14c13,-1 23.014,5.444 28.994,13.607c3.175,4.334 7.006,17.893 5.006,24.393z" fill="#b77748"></path><path d="M50,69c-20.951,0 -32.719,-7.125 -35.976,-21.783c-1.703,-7.664 2.583,-14.919 5.419,-19.721c0.668,-1.132 1.246,-2.11 1.663,-2.943c5.651,-11.303 17.739,-13.698 28.818,-14.55c11.807,-0.911 22.69,4.201 29.877,14.013c3.431,4.684 7.26,18.436 5.155,25.278c-5.05,16.409 -17.119,19.706 -34.956,19.706zM52.589,11.9c-0.832,0 -1.669,0.032 -2.512,0.097c-14.913,1.147 -23.042,5.169 -27.182,13.45c-0.448,0.896 -1.042,1.901 -1.729,3.066c-2.836,4.801 -6.721,11.377 -5.189,18.27c3.065,13.793 13.876,20.217 34.023,20.217c20.241,0 28.889,-4.787 33.044,-18.294c1.851,-6.013 -1.729,-19.24 -4.856,-23.508c-6.256,-8.54 -15.481,-13.298 -25.599,-13.298z" fill="#000000"></path><path d="M82,56.03c0,18.226 -13.775,31.97 -32,31.97c-18.225,0 -32,-14.775 -32,-33c0,-18.225 13.775,-33 32,-33c18.225,0 32,15.805 32,34.03z" fill="#fed5b3"></path><path d="M50,89c-18.505,0 -33,-14.935 -33,-34c0,-19.065 14.495,-34 33,-34c18.196,0 33,15.714 33,35.03c0,18.796 -14.187,32.97 -33,32.97zM50,23c-17.383,0 -31,14.056 -31,32c0,17.944 13.617,32 31,32c17.673,0 31,-13.314 31,-30.97c0,-18.213 -13.906,-33.03 -31,-33.03z" fill="#000000"></path><path d="M25.536,47.496c-0.008,0.169 -0.036,0.333 -0.036,0.504c0,5.799 4.701,10.5 10.5,10.5c5.799,0 10.5,-4.701 10.5,-10.5c0,-0.431 -0.039,-0.851 -0.091,-1.268c-6.92,-1.18 -13.878,-0.916 -20.873,0.764z" fill="#ffffff"></path><path d="M36,59c-6.065,0 -11,-4.935 -11,-11c0,-0.117 0.01,-0.231 0.021,-0.346l0.015,-0.183c0.011,-0.222 0.167,-0.41 0.383,-0.462c7.05,-1.692 14.142,-1.953 21.074,-0.771c0.218,0.037 0.386,0.213 0.412,0.432c0.045,0.36 0.095,0.836 0.095,1.33c0,6.065 -4.935,11 -11,11zM26.003,47.899c-0.002,0.034 -0.003,0.067 -0.003,0.101c0,5.514 4.486,10 10,10c5.514,0 10,-4.486 10,-10c0,-0.291 -0.02,-0.579 -0.045,-0.837c-6.569,-1.069 -13.275,-0.822 -19.952,0.736z" fill="#000000"></path><path d="M53.517,47.766c-0.002,0.079 -0.017,0.155 -0.017,0.234c0,5.799 4.701,10.5 10.5,10.5c5.799,0 10.5,-4.701 10.5,-10.5c0,-0.487 -0.037,-0.964 -0.102,-1.433c-6.923,-1.035 -13.883,-0.628 -20.881,1.199z" fill="#ffffff"></path><path d="M64,59c-6.065,0 -11,-4.935 -11,-11c0,-0.06 0.005,-0.118 0.011,-0.176c0.006,-0.223 0.164,-0.485 0.38,-0.542c7.046,-1.839 14.136,-2.247 21.081,-1.21c0.219,0.033 0.391,0.206 0.421,0.425c0.071,0.511 0.107,1.017 0.107,1.503c0,6.065 -4.935,11 -11,11zM54.008,48.156c0.116,5.481 4.555,9.844 9.992,9.844c5.514,0 10,-4.486 10,-10c0,-0.323 -0.018,-0.656 -0.053,-0.993c-6.569,-0.932 -13.272,-0.545 -19.939,1.149z" fill="#000000"></path><path d="M51.939,64.478c-2.858,0 -5.686,-3.485 -5.83,-3.665c-0.172,-0.216 -0.137,-0.53 0.078,-0.703c0.217,-0.172 0.531,-0.137 0.703,0.078c0.038,0.047 3.747,4.619 6.333,2.896c0.441,-0.294 0.679,-0.672 0.727,-1.156c0.168,-1.695 -1.966,-4.237 -2.803,-5.074c-0.195,-0.195 -0.195,-0.512 0,-0.707c0.195,-0.195 0.512,-0.195 0.707,0c0.137,0.137 3.339,3.371 3.091,5.88c-0.078,0.79 -0.471,1.426 -1.167,1.89c-0.596,0.396 -1.218,0.561 -1.839,0.561z" fill="#000000"></path><path d="M30.545,39.029c-2.916,1.781 -4.894,4.948 -5.026,8.586c7.009,-1.842 13.979,-2.12 20.909,-0.801c-0.343,-3.053 -1.995,-5.711 -4.381,-7.397" fill="#fed5b3"></path><path d="M57.538,39.725c-0.858,0.672 -1.609,1.475 -2.223,2.378c-0.427,0.629 -0.788,1.307 -1.073,2.023c-0.463,1.167 -0.723,2.437 -0.737,3.766c7.005,-1.99 13.97,-2.418 20.896,-1.258c-0.381,-2.926 -1.963,-5.475 -4.237,-7.131" fill="#fed5b3"></path><path d="M30.5,35c-0.17,0 -0.335,-0.086 -0.429,-0.243c-0.142,-0.237 -0.065,-0.544 0.171,-0.686c0.211,-0.127 5.268,-3.088 12.395,-1.052c0.266,0.076 0.419,0.353 0.344,0.618c-0.076,0.267 -0.355,0.416 -0.618,0.344c-6.714,-1.919 -11.558,0.919 -11.605,0.948c-0.081,0.048 -0.17,0.071 -0.258,0.071z" fill="#000000"></path><path d="M41.5,74.5c0,0 9.958,-3.295 19,0" fill="#ead6c7"></path><path d="M60.5,75c-0.057,0 -0.114,-0.01 -0.171,-0.03c-8.77,-3.195 -18.574,-0.027 -18.672,0.005c-0.261,0.087 -0.545,-0.056 -0.631,-0.317c-0.087,-0.263 0.056,-0.545 0.317,-0.632c0.414,-0.137 10.227,-3.313 19.328,0.005c0.26,0.095 0.394,0.382 0.299,0.641c-0.074,0.202 -0.266,0.328 -0.47,0.328z" fill="#000000"></path><g fill="#000000"><path d="M69.5,35c-0.075,0 -0.151,-0.017 -0.224,-0.053c-5.76,-2.879 -12.571,-0.986 -12.639,-0.966c-0.271,0.075 -0.543,-0.079 -0.618,-0.344c-0.076,-0.265 0.077,-0.542 0.343,-0.618c0.295,-0.083 7.257,-2.018 13.361,1.034c0.247,0.124 0.347,0.424 0.224,0.671c-0.088,0.175 -0.264,0.276 -0.447,0.276z"></path></g><g fill="#000000"><circle cx="35.5" cy="47.5" r="1.5"></circle></g><g fill="#000000"><circle cx="64.5" cy="47.5" r="1.5"></circle></g><g fill="#000000"><path d="M25.52,48.116c-0.112,0 -0.223,-0.038 -0.313,-0.11c-0.124,-0.099 -0.193,-0.25 -0.187,-0.408c0.064,-1.787 0.569,-3.546 1.458,-5.089c0.137,-0.239 0.443,-0.321 0.683,-0.184c0.24,0.137 0.322,0.443 0.184,0.683c-0.696,1.208 -1.132,2.563 -1.278,3.953c6.616,-1.645 13.259,-1.899 19.766,-0.763c-0.467,-2.559 -1.926,-4.854 -4.073,-6.372c-0.226,-0.159 -0.279,-0.471 -0.12,-0.697c0.159,-0.225 0.472,-0.279 0.697,-0.12c2.566,1.814 4.239,4.639 4.589,7.75c0.018,0.158 -0.041,0.314 -0.157,0.422c-0.116,0.108 -0.281,0.154 -0.433,0.125c-6.801,-1.293 -13.761,-1.026 -20.689,0.793c-0.043,0.011 -0.085,0.017 -0.127,0.017z"></path></g><g fill="#000000"><path d="M28.692,40.968c-0.13,0 -0.26,-0.051 -0.358,-0.151c-0.192,-0.198 -0.188,-0.515 0.01,-0.707c0.588,-0.573 1.241,-1.08 1.94,-1.507c0.236,-0.144 0.544,-0.07 0.688,0.166c0.144,0.236 0.07,0.543 -0.166,0.688c-0.636,0.388 -1.229,0.849 -1.765,1.37c-0.097,0.094 -0.223,0.141 -0.349,0.141z"></path></g><g fill="#000000"><path d="M53.506,48.393c-0.108,0 -0.215,-0.035 -0.304,-0.103c-0.125,-0.096 -0.198,-0.245 -0.196,-0.402c0.013,-1.318 0.257,-2.606 0.726,-3.829c0.099,-0.257 0.39,-0.385 0.646,-0.288c0.258,0.099 0.387,0.388 0.288,0.646c-0.346,0.902 -0.558,1.845 -0.631,2.81c6.607,-1.784 13.247,-2.187 19.761,-1.196c-0.49,-2.441 -1.896,-4.646 -3.925,-6.124c-0.224,-0.163 -0.272,-0.476 -0.11,-0.699c0.162,-0.224 0.476,-0.271 0.698,-0.11c2.435,1.773 4.052,4.496 4.439,7.471c0.021,0.157 -0.035,0.314 -0.149,0.424c-0.114,0.11 -0.27,0.157 -0.43,0.133c-6.802,-1.14 -13.758,-0.721 -20.676,1.246c-0.045,0.014 -0.091,0.021 -0.137,0.021z"></path></g><g fill="#000000"><path d="M55.429,42.439c-0.101,0 -0.201,-0.03 -0.289,-0.092c-0.225,-0.159 -0.278,-0.471 -0.119,-0.697c0.619,-0.875 1.362,-1.655 2.209,-2.319c0.218,-0.17 0.531,-0.132 0.702,0.085c0.17,0.218 0.132,0.532 -0.085,0.702c-0.771,0.604 -1.447,1.313 -2.01,2.109c-0.098,0.139 -0.252,0.212 -0.408,0.212z"></path></g></g></g></g></svg>